<svg id="Capa_1" data-name="Capa 1" xmlns="http://www.w3.org/2000/svg" viewBox="0 0 1105.68 219.45"><path d="M425.12,83,303.74,217.45C123.43,198.41,0,159.67,0,115,0,55.48,218.92,6.53,499.52.6l-6.8,7.53C340.13,11.67,225,27.65,225,46.81,225,63,307.38,77,425.12,83ZM592.5,35.19a16.65,16.65,0,0,0,7.21-6.33,18.3,18.3,0,0,0,2.49-9.68,18.22,18.22,0,0,0-2.62-9.9,16.86,16.86,0,0,0-7.45-6.41A26.46,26.46,0,0,0,580.87.64H523.08V10.75h57.4q5.09,0,8,2.07A7.18,7.18,0,0,1,591.3,19a7.27,7.27,0,0,1-2.86,6.24c-1.92,1.42-4.57,2.11-8,2.11H538.84q-7.65,0-11.7,4.06t-4.06,11.79V64.32h11v-20a6.75,6.75,0,0,1,1.75-5,6.79,6.79,0,0,1,5-1.75h3.41a7.35,7.35,0,0,1,3,.52A9.37,9.37,0,0,1,550,40.28l16.39,16.16a27.24,27.24,0,0,0,8.89,6.21,30.68,30.68,0,0,0,11.09,1.67h15.13V54.22H587.56a29.21,29.21,0,0,1-5.13-.37,11.47,11.47,0,0,1-3.58-1.27,18.53,18.53,0,0,1-3.54-2.67L562.48,37.49h19A26.2,26.2,0,0,0,592.5,35.19Zm19.26,14.05a33.62,33.62,0,0,1-4.06-16.76,33.65,33.65,0,0,1,4.06-16.76A28.3,28.3,0,0,1,623.35,4.5a37.19,37.19,0,0,1,17.78-4h19.51a37.31,37.31,0,0,1,17.75,4A28.34,28.34,0,0,1,690,15.72a33.65,33.65,0,0,1,4.05,16.76A33.62,33.62,0,0,1,690,49.24a28.42,28.42,0,0,1-11.63,11.23,37.43,37.43,0,0,1-17.75,4H641.13a37.3,37.3,0,0,1-17.78-4A28.38,28.38,0,0,1,611.76,49.24Zm6.93-16.76A23.89,23.89,0,0,0,621.35,44a18.68,18.68,0,0,0,7.77,7.68,24.83,24.83,0,0,0,12,2.75h19.51a24.87,24.87,0,0,0,12-2.75A18.31,18.31,0,0,0,680.37,44,24.12,24.12,0,0,0,683,32.48a24.06,24.06,0,0,0-2.63-11.54,18.27,18.27,0,0,0-7.71-7.69,25,25,0,0,0-12-2.74H641.13a25.18,25.18,0,0,0-12,2.74,18.36,18.36,0,0,0-7.77,7.69A24.17,24.17,0,0,0,618.69,32.48ZM784.5,64.33H772L760.63,43.55h-44l-11.4,20.78H692.72L719,15.21a50.26,50.26,0,0,1,5.9-9,18.22,18.22,0,0,1,6-4.74A18.26,18.26,0,0,1,738.65,0a19,19,0,0,1,7.69,1.43,16.79,16.79,0,0,1,6,4.74,53.05,53.05,0,0,1,5.77,9Zm-29-31L747.41,18a38.77,38.77,0,0,0-3-4.57,10.22,10.22,0,0,0-2.67-2.51,5.77,5.77,0,0,0-3.06-.8,6.15,6.15,0,0,0-3.18.8,9.64,9.64,0,0,0-2.67,2.51,47.67,47.67,0,0,0-3.06,4.65l-8,15.29Zm81.19,31h-47V.64h47a38.33,38.33,0,0,1,18,3.94,27.38,27.38,0,0,1,11.5,11.1,34.1,34.1,0,0,1,4,16.8,34,34,0,0,1-4,16.79,27.29,27.29,0,0,1-11.5,11.11Q847.15,64.32,836.72,64.32Zm-36.05-10.1h36.05q10.68,0,16.52-5.86t5.86-15.88q0-10-5.86-15.88t-16.52-5.85H800.67Zm138.1,10.1h11V10.75h35.66V.64H903.27V10.75h35.5Zm51.12-15.08a33.52,33.52,0,0,1-4.07-16.76,33.55,33.55,0,0,1,4.07-16.76A28.31,28.31,0,0,1,1001.46,4.5a37.3,37.3,0,0,1,17.8-4h19.5a37.33,37.33,0,0,1,17.76,4,28.17,28.17,0,0,1,11.61,11.22,33.45,33.45,0,0,1,4.07,16.76,33.42,33.42,0,0,1-4.07,16.76,28.25,28.25,0,0,1-11.61,11.23,37.44,37.44,0,0,1-17.76,4h-19.5a37.41,37.41,0,0,1-17.8-4A28.39,28.39,0,0,1,989.89,49.24Zm6.93-16.76A23.89,23.89,0,0,0,999.48,44a18.66,18.66,0,0,0,7.76,7.68,24.87,24.87,0,0,0,12,2.75h19.5a24.88,24.88,0,0,0,12-2.75A18.42,18.42,0,0,0,1058.5,44a24.23,24.23,0,0,0,2.63-11.54,24.18,24.18,0,0,0-2.63-11.54,18.39,18.39,0,0,0-7.71-7.69,25,25,0,0,0-12-2.74h-19.5a25.23,25.23,0,0,0-12.06,2.74,18.34,18.34,0,0,0-7.76,7.69A24.17,24.17,0,0,0,996.82,32.48Zm-112,133.33a53.64,53.64,0,1,1-53.64-53.65A53.65,53.65,0,0,1,884.78,165.81Zm-29.53,0c0-13.31-10.79-25-24.11-25S807,152.5,807,165.81s10.79,25,24.11,25S855.25,179.12,855.25,165.81ZM1068,211.86l-3.23-5.42h-2.13v11h2v-7.65l2.5,4.19h1.66l2.51-4.29v7.75h2v-11h-2.12Zm-16.37-3.47H1055v9.05h2v-9.05h3.47v-1.95h-9Zm54.1-63.22a39,39,0,0,1-37.24,38.89h-27.11v33.38H948.42a55.58,55.58,0,1,1,0-111.16h118.44A38.92,38.92,0,0,1,1105.68,145.17ZM996.8,117.28H948.42a44.58,44.58,0,0,0,0,89.16H996.8V150.67H948.42a11.19,11.19,0,1,0,0,22.38h25.93v11H948.42a22.2,22.2,0,0,1,0-44.4H996.8Zm97.86,27.89a27.9,27.9,0,0,0-27.8-27.89h-59v22.38h59a5.51,5.51,0,0,1,0,11h-59v55.77h22.51V173.05h36.54A27.9,27.9,0,0,0,1094.66,145.17ZM750.91,98.25H721.34v87a32.18,32.18,0,0,0,32.09,32.2h21.63v-29H753.6a2.56,2.56,0,0,1-2.57-2.57l0-39.53h24.08v-29H750.94Zm-36.48,67.56a53.65,53.65,0,1,1-53.65-53.65A53.65,53.65,0,0,1,714.43,165.81Zm-29.53,0c0-13.31-10.8-25-24.12-25s-24.11,11.67-24.11,25,10.8,25,24.11,25S684.9,179.12,684.9,165.81Zm-100.16-56.3A28.56,28.56,0,0,0,551,114.9l-57.47,63.74a1.89,1.89,0,0,1-3.25-1.32V135a28.69,28.69,0,0,0-28.68-28.73c-8,0-16.12,3.17-21,8.55L348.35,217.44h42.57L455.19,146a1.89,1.89,0,0,1,3.25,1.31v43A28.17,28.17,0,0,0,477.3,217a29.68,29.68,0,0,0,31-7.73l56.83-63.08a1.89,1.89,0,0,1,3.25,1.32v69.92h31.87V135A28.72,28.72,0,0,0,584.74,109.51Z"/></svg>